<svg xmlns="http://www.w3.org/2000/svg" viewBox="0 0 128 128"><defs><style>.cls-1{fill:#fff;stroke:#1d1d1b;stroke-miterlimit:10;stroke-width:1.96px;}.cls-2{fill:#1d1d1b;}</style></defs><title>icon</title><g id="Layer_2" data-name="Layer 2"><circle class="cls-1" cx="64" cy="64" r="46.64"/><path class="cls-2" d="M100.76,55.75H74.23v0a4.62,4.62,0,0,0-.07-.65,12.12,12.12,0,0,0-3.19-6c-.17-.2-.35-.39-.53-.59L64,29,57.58,48.48c-.19.2-.36.39-.53.59a12.1,12.1,0,0,0-3.24,6,4.64,4.64,0,0,0-.07.64v0H27.24l22.2,16.64L41.23,99,61.8,84.15l.07,0c1.16.88,1.33,1.34,1.36,1.5l.05.37a.3.3,0,0,0,.31.26h.77a.31.31,0,0,0,.31-.25l.07-.36c0-.16.22-.63,1.38-1.52l.07-.06L86.76,99,78.67,72.39ZM64,43.8c17.58,13.64,5.87,16.08,2.84,25H65.15L64,47.71h0l-1.25,21H61.14C58.06,59.88,46.42,57.44,64,43.8ZM70.4,69.21a2,2,0,0,1,2,2v.49a2,2,0,0,1-2,2H57.6a2,2,0,0,1-2-2v-.49a2,2,0,0,1,2-2ZM49.8,70.63c-10.15-3.82-6.92-13.29-1.08-13.29,1.85,0,4,.95,6,3.35a27.77,27.77,0,0,1,4.82,8.06H57.6a2.12,2.12,0,0,0-.57.08c-.92-1.6-2.39-2.78-3.8-2.78S50.42,67.3,49.8,70.63Zm3.52,6.31a5.73,5.73,0,0,0,4.19-2.86h3c-.1,3.3-1.75,5.29-3.66,5.29C55.66,79.37,54.39,78.61,53.32,76.94ZM64,85.59h0c-.25-1.7-5.07-4.07-5.07-4.07s1.79-2.44,2.37-7.44H63.1l.9,4.85.82-4.85H66.7c.57,5,2.33,7.44,2.33,7.44S64.32,83.89,64,85.59Zm7.2-6.22c-1.91,0-3.56-2-3.66-5.29h3c.61,1.27,1.92,2.34,4.2,2.86C73.65,78.61,72.38,79.37,71.2,79.37Zm3.61-13.32c-1.41,0-2.88,1.19-3.8,2.79a2.1,2.1,0,0,0-.61-.09H68.5a27.77,27.77,0,0,1,4.82-8.06c2-2.4,4.15-3.35,6-3.35,5.84,0,9.07,9.47-1.08,13.29C77.62,67.3,76.25,66.05,74.81,66.05Z"/></g></svg>