<?xml version="1.0" encoding="UTF-8" standalone="no"?>
<svg
   xmlns:dc="http://purl.org/dc/elements/1.1/"
   xmlns:cc="http://creativecommons.org/ns#"
   xmlns:rdf="http://www.w3.org/1999/02/22-rdf-syntax-ns#"
   xmlns:svg="http://www.w3.org/2000/svg"
   xmlns="http://www.w3.org/2000/svg"
   viewBox="0 0 1122.5197 793.70074"
   height="793.70074"
   width="1122.5197"
   xml:space="preserve"
   id="svg2"
   version="1.1"><metadata
     id="metadata8"><rdf:RDF><cc:Work
         rdf:about=""><dc:format>image/svg+xml</dc:format><dc:type
           rdf:resource="http://purl.org/dc/dcmitype/StillImage" /></cc:Work></rdf:RDF></metadata><defs
     id="defs6" /><g
     transform="matrix(1.3333333,0,0,-1.3333333,0,793.70076)"
     id="g10"><g
       transform="scale(1,-1)"
       id="g12"><path
         id="path14"
         style="fill:#fcd006;fill-opacity:1;fill-rule:nonzero;stroke:none"
         d="m 440.03516,-399.05371 c -7.08789,-0.11621 -20.80176,0.9248 -20.80176,0.9248 0,0 -47.53516,64.31641 -47.53516,64.31641 0,0 6.04688,-60.70898 6.04688,-60.70898 0,0 -13.54492,1.79687 -33.38965,5.36328 -17.08106,3.06836 -43.70606,9.56738 -43.70606,9.56738 0,0 -38.27343,58.11328 -38.27343,58.11328 0,0 5.86328,-49.05078 5.86328,-49.05078 0,0 -1.79883,0.13574 -13.0166,3.32129 -11.21778,3.18555 -23.52832,8.25683 -23.52832,8.25683 0,0 0.25586,117.50196 0.25586,117.50196 0,0 105.2832,-128.52539 105.2832,-128.52539 0,0 0.64844,128.52539 0.64844,128.52539 0,0 102.17285,-124.93067 102.17285,-124.93067 0,0 -0.0195,-32.6748 -0.0195,-32.6748 z" /><path
         id="path16"
         style="fill:#ed114c;fill-opacity:1;fill-rule:nonzero;stroke:none"
         d="m 373.12793,-282.67383 c -78.08105,-89.69336 -152.96484,91.77051 -215.73047,-129.5166 7.13672,67.47852 15.84082,94.76367 42.02344,121.5957 -43.55176,-6.9082 -75.10742,-60.50781 -95.91016,-96.18164 92.27539,240.98926 178.06348,26.66602 269.61719,104.10254 z" /><path
         id="path18"
         style="fill:#ed114c;fill-opacity:1;fill-rule:nonzero;stroke:none"
         d="m 274.48145,-316.00195 c -2.67286,9.54785 -9.74805,15.91211 -15.80274,14.21289 -6.05176,-1.7002 -12.60644,-13.92871 -9.93262,-23.47657 1.97168,-7.04687 9.16504,-14.02929 19.61231,-11.09863 6.05469,1.69824 8.79687,10.81738 6.12305,20.36231 z" /><path
         id="path20"
         style="fill:#ed114c;fill-opacity:1;fill-rule:nonzero;stroke:none"
         d="m 523.42578,-392.1416 c 0,0 0,71.86914 0,71.86914 0,11.96777 -4.08691,17.94726 -12.25683,17.94726 -8.45801,0 -12.67872,-5.97949 -12.67872,-17.94726 0,0 0,-75.26563 0,-75.26563 0,0 -15.51464,-1.8916 -27.375,-2.59082 -11.86035,-0.69726 -31.08007,-0.9248 -31.08007,-0.9248 0,0 0,78.91992 0,78.91992 0,24.47168 5.86328,43.22949 17.60254,56.2793 11.73925,13.05469 28.67089,19.57617 50.80371,19.57617 22.22754,0 40.02246,-6.71191 53.38964,-20.15137 13.36231,-13.43261 20.04883,-31.37402 20.04883,-53.83203 0,0 0,-60.01465 0,-60.01465 0,0 -12.69726,-4.27246 -26.96875,-7.67383 -14.26953,-3.40136 -31.48535,-6.1914 -31.48535,-6.1914 z" /><path
         id="path22"
         style="fill:#ed114c;fill-opacity:1;fill-rule:nonzero;stroke:none"
         d="m 230.87012,-223.7627 c 0,0 3.04199,0 3.04199,0 0,0 3.30957,10.91993 3.30957,10.91993 0,0 3.35059,-10.91993 3.35059,-10.91993 0,0 2.99804,0 2.99804,0 0,0 -4.84961,15.88184 -4.84961,15.88184 0,0 -3.01367,0 -3.01367,0 0,0 -4.83691,-15.88184 -4.83691,-15.88184 z" /><path
         id="path24"
         style="fill:#ed114c;fill-opacity:1;fill-rule:nonzero;stroke:none"
         d="m 249.34082,-217.50586 c -0.64941,0 -1.16211,0.25293 -1.53516,0.75684 -0.49804,0.67089 -0.74609,1.74218 -0.74609,3.21386 0,1.34864 0.2207,2.3086 0.66309,2.88282 0.44238,0.57324 0.97558,0.86035 1.59668,0.86035 0.43652,0 0.83398,-0.13965 1.19336,-0.41992 0.35937,-0.28028 0.61816,-0.67969 0.77832,-1.19727 0.22753,-0.72559 0.34179,-1.54492 0.34179,-2.45703 0,-0.68457 -0.0957,-1.32227 -0.28515,-1.91309 -0.19043,-0.59082 -0.46485,-1.02636 -0.8252,-1.30664 -0.35937,-0.27929 -0.75391,-0.41992 -1.18164,-0.41992 z m -0.28809,-1.88867 c 1.6836,0 3.00391,0.50195 3.9629,1.5039 0.95898,1.00196 1.43847,2.42579 1.43847,4.27149 0,1.85937 -0.48535,3.31055 -1.4541,4.35449 -0.96973,1.04395 -2.18164,1.56641 -3.63477,1.56641 -1.39257,0 -2.60253,-0.49512 -3.63085,-1.4834 -1.02833,-0.98828 -1.542,-2.46094 -1.542,-4.41699 0,-1.85157 0.45996,-3.28125 1.38086,-4.28711 0.9209,-1.00489 2.08106,-1.50879 3.47949,-1.50879 z" /><path
         id="path26"
         style="fill:#ed114c;fill-opacity:1;fill-rule:nonzero;stroke:none"
         d="m 257.53906,-224.01367 c 0,0 2.86719,0 2.86719,0 0,0 0,16.13281 0,16.13281 0,0 -2.86719,0 -2.86719,0 0,0 0,-16.13281 0,-16.13281 z" /><path
         id="path28"
         style="fill:#ed114c;fill-opacity:1;fill-rule:nonzero;stroke:none"
         d="m 264.61914,-224.01367 c 0,0 2.86719,0 2.86719,0 0,0 0,16.13281 0,16.13281 0,0 -2.86719,0 -2.86719,0 0,0 0,-16.13281 0,-16.13281 z" /><path
         id="path30"
         style="fill:#ed114c;fill-opacity:1;fill-rule:nonzero;stroke:none"
         d="m 278.27441,-214.75195 c -0.041,-0.86426 -0.28222,-1.52735 -0.72265,-1.99024 -0.44141,-0.46289 -0.98242,-0.69531 -1.62305,-0.69531 -0.61328,0 -1.13183,0.22656 -1.55469,0.67969 -0.42382,0.45215 -0.66406,1.12109 -0.71875,2.00586 0,0 4.61914,0 4.61914,0 z m 2.34375,4.16308 c -0.26269,0.48926 -0.50586,0.86328 -0.72656,1.125 -0.34668,0.40625 -0.73047,0.74024 -1.15234,1.00196 -0.42285,0.26074 -0.85938,0.4541 -1.3086,0.57714 -0.45117,0.12305 -0.92089,0.18653 -1.41211,0.18653 -0.95605,0 -1.86425,-0.24414 -2.72656,-0.73242 -0.86133,-0.48731 -1.52051,-1.19629 -1.97851,-2.12696 -0.45606,-0.93066 -0.68457,-1.96972 -0.68457,-3.11816 0,-1.74317 0.49218,-3.13184 1.47754,-4.16699 0.98339,-1.03418 2.24218,-1.55176 3.77636,-1.55176 1.49903,0 2.7002,0.47265 3.60547,1.41699 0.9043,0.94336 1.35742,2.2627 1.35742,3.95606 0,0.22168 -0.0107,0.54687 -0.0303,0.97558 0,0 -7.16016,0 -7.16016,0 0.0352,1.02246 0.27246,1.78223 0.71485,2.2793 0.4414,0.49805 0.99707,0.74707 1.66699,0.74707 0.51172,0 0.94629,-0.13281 1.30469,-0.39746 0.35937,-0.26563 0.66992,-0.65625 0.93261,-1.17285 0,0 2.34375,1.00097 2.34375,1.00097 z" /><path
         id="path32"
         style="fill:#ed114c;fill-opacity:1;fill-rule:nonzero;stroke:none"
         d="m 282.08203,-219.18945 c 0,0 2.6875,0 2.6875,0 0,0 2.22363,7.27734 2.22363,7.27734 0,0 2.18946,-7.27734 2.18946,-7.27734 0,0 2.68359,0 2.68359,0 0,0 -3.19726,10.62597 -3.19726,10.62597 -0.3877,1.27832 -0.76368,2.23535 -1.12598,2.8711 -0.36328,0.63476 -0.80371,1.15625 -1.32227,1.56445 -0.28418,0.22754 -0.68164,0.41797 -1.19336,0.57031 -0.51171,0.15137 -1.11816,0.22754 -1.8164,0.22754 0,0 -1.02637,0 -1.02637,0 0,0 0,-1.97949 0,-1.97949 0,0 0.56055,0 0.56055,0 0.78027,0 1.41894,-0.18945 1.91308,-0.56738 0.49414,-0.37793 0.82422,-0.92481 0.99024,-1.63965 0,0 -3.56641,-11.67285 -3.56641,-11.67285 z" /><path
         id="path34"
         style="fill:#ed114c;fill-opacity:1;fill-rule:nonzero;stroke:none"
         d="m 297.06055,-215.85547 c 0,0 0,4.60742 0,4.60742 0.33105,0.39453 0.66797,0.69043 1.01367,0.88672 0.34375,0.19824 0.69238,0.2959 1.04297,0.2959 0.63476,0 1.16699,-0.27637 1.59765,-0.83008 0.43067,-0.55371 0.64649,-1.50488 0.64649,-2.85254 0,-1.12793 -0.21387,-1.95605 -0.64063,-2.48633 -0.42871,-0.52929 -0.94433,-0.79296 -1.55078,-0.79296 -0.37207,0 -0.73535,0.0967 -1.08594,0.29004 -0.35156,0.19335 -0.69238,0.4873 -1.02343,0.88183 z m -2.86719,-8.1582 c 0,0 2.86719,0 2.86719,0 0,0 0,6.18652 0,6.18652 0.49609,-0.52637 0.99511,-0.91894 1.49511,-1.17773 0.49903,-0.25977 1.04297,-0.38965 1.62891,-0.38965 0.75195,0 1.4834,0.23828 2.19434,0.71094 0.70898,0.47363 1.2373,1.17968 1.58203,2.11718 0.34472,0.9375 0.51758,1.90821 0.51758,2.91114 0,1.05175 -0.14844,2.02343 -0.44434,2.91601 -0.20117,0.59473 -0.48242,1.10938 -0.84375,1.54199 -0.3623,0.43164 -0.80176,0.79004 -1.31934,1.07325 -0.51757,0.2832 -1.07519,0.42578 -1.67578,0.42578 -0.51758,0 -1.03808,-0.12696 -1.5625,-0.37891 -0.52343,-0.25195 -1.04785,-0.63086 -1.57226,-1.13476 0,0 0,1.33105 0,1.33105 0,0 -2.86719,0 -2.86719,0 0,0 0,-16.13281 0,-16.13281 z" /><path
         id="path36"
         style="fill:#ed114c;fill-opacity:1;fill-rule:nonzero;stroke:none"
         d="m 313.3252,-210.88379 c 0,0 0,-2.82422 0,-2.82422 -1.66211,0.31055 -2.80176,0.73438 -3.42188,1.27246 -0.47949,0.40625 -0.71973,0.86621 -0.71973,1.375 0,0.41407 0.1377,0.75586 0.41211,1.02442 0.27442,0.26855 0.62403,0.40332 1.04883,0.40332 0.36133,0 0.76563,-0.10547 1.21485,-0.31543 0.44824,-0.21094 0.9375,-0.52246 1.46582,-0.93555 z m -6.41407,-6.46289 c 0.56153,-0.66504 1.23438,-1.17285 2.01758,-1.52246 0.7832,-0.35059 1.62305,-0.52539 2.51758,-0.52539 0.92969,0 1.74707,0.16699 2.45605,0.49902 0.5127,0.24903 0.95801,0.66211 1.33594,1.24024 0.37793,0.57812 0.56738,1.30273 0.56738,2.1748 0,0 0,5.27442 0,5.27442 0,0.33203 0.04,0.73437 0.1211,1.20507 0.082,0.47071 0.16992,0.84375 0.26562,1.12012 0,0 -2.50488,0 -2.50488,0 -0.11719,-0.38477 -0.20801,-0.77637 -0.26953,-1.1748 -0.5127,0.44921 -1.04492,0.78711 -1.59473,1.01562 -0.55176,0.22754 -1.12109,0.3418 -1.70996,0.3418 -1.02539,0 -1.86914,-0.30957 -2.53125,-0.92774 -0.66113,-0.61718 -0.99219,-1.35058 -0.99219,-2.20019 0,-0.59375 0.15332,-1.15625 0.45801,-1.68848 0.30567,-0.53125 0.75293,-0.99609 1.34375,-1.39258 0.58985,-0.39746 1.33203,-0.71679 2.22852,-0.958 0.67187,-0.17969 1.57812,-0.33204 2.71582,-0.45606 0,-0.47656 -0.041,-0.82226 -0.12403,-1.03711 -0.12597,-0.33105 -0.34375,-0.58984 -0.65722,-0.77637 -0.3125,-0.18554 -0.69824,-0.28027 -1.15528,-0.28027 -1.10351,0 -2.03125,0.50098 -2.78027,1.50391 0,0 -1.70801,-1.43555 -1.70801,-1.43555 z" /><path
         id="path38"
         style="fill:#ed114c;fill-opacity:1;fill-rule:nonzero;stroke:none"
         d="m 319.60645,-224.01367 c 0,0 2.86621,0 2.86621,0 0,0 0,16.13281 0,16.13281 0,0 -2.86621,0 -2.86621,0 0,0 0,-16.13281 0,-16.13281 z" /><path
         id="path40"
         style="fill:#ed114c;fill-opacity:1;fill-rule:nonzero;stroke:none"
         d="m 325.21973,-219.18945 c 0,0 2.66015,0 2.66015,0 0,0 2.00196,7.51172 2.00196,7.51172 0,0 2.02539,-7.51172 2.02539,-7.51172 0,0 2.68359,0 2.68359,0 0,0 -3.05566,11.30859 -3.05566,11.30859 0,0 -3.29004,0 -3.29004,0 0,0 -3.02539,-11.30859 -3.02539,-11.30859 z" /><path
         id="path42"
         style="fill:#ed114c;fill-opacity:1;fill-rule:nonzero;stroke:none"
         d="m 343.10449,-214.75195 c -0.041,-0.86426 -0.28222,-1.52735 -0.72363,-1.99024 -0.44043,-0.46289 -0.98145,-0.69531 -1.62207,-0.69531 -0.61328,0 -1.13184,0.22656 -1.55566,0.67969 -0.42383,0.45215 -0.66309,1.12109 -0.71778,2.00586 0,0 4.61914,0 4.61914,0 z m 2.34375,4.16308 c -0.26367,0.48926 -0.50586,0.86328 -0.72656,1.125 -0.34668,0.40625 -0.73047,0.74024 -1.15332,1.00196 -0.42188,0.26074 -0.8584,0.4541 -1.30859,0.57714 -0.4502,0.12305 -0.91993,0.18653 -1.41211,0.18653 -0.95508,0 -1.86426,-0.24414 -2.72559,-0.73242 -0.8623,-0.48731 -1.52148,-1.19629 -1.97852,-2.12696 -0.45605,-0.93066 -0.68457,-1.96972 -0.68457,-3.11816 0,-1.74317 0.49219,-3.13184 1.47657,-4.16699 0.98437,-1.03418 2.24316,-1.55176 3.77636,-1.55176 1.49903,0 2.70118,0.47265 3.60645,1.41699 0.9043,0.94336 1.35742,2.2627 1.35742,3.95606 0,0.22168 -0.0107,0.54687 -0.0312,0.97558 0,0 -7.15918,0 -7.15918,0 0.0352,1.02246 0.27246,1.78223 0.71485,2.2793 0.4414,0.49805 0.99707,0.74707 1.66699,0.74707 0.51172,0 0.94629,-0.13281 1.30469,-0.39746 0.35937,-0.26563 0.66992,-0.65625 0.93261,-1.17285 0,0 2.34375,1.00097 2.34375,1.00097 z" /><path
         id="path44"
         style="fill:#ed114c;fill-opacity:1;fill-rule:nonzero;stroke:none"
         d="m 351.26367,-216.48145 c 0.6416,-1.08398 1.24512,-1.833 1.81055,-2.24707 0.56543,-0.41308 1.18359,-0.63476 1.85254,-0.66601 0,0 0,2.91308 0,2.91308 0,0 -0.25879,0 -0.25879,0 -0.7041,0 -1.36621,0.21582 -1.98633,0.64844 -0.62207,0.43164 -1.09375,1.04981 -1.41797,1.85156 0,0 0,6.10059 0,6.10059 0,0 -2.88965,0 -2.88965,0 0,0 0,-11.30859 0,-11.30859 0,0 2.88965,0 2.88965,0 0,0 0,2.708 0,2.708 z" /><path
         id="path46"
         style="fill:#ed114c;fill-opacity:1;fill-rule:nonzero;stroke:none"
         d="m 364.02344,-214.75195 c -0.041,-0.86426 -0.28223,-1.52735 -0.72266,-1.99024 -0.4414,-0.46289 -0.98242,-0.69531 -1.62305,-0.69531 -0.61328,0 -1.13183,0.22656 -1.55468,0.67969 -0.42383,0.45215 -0.66407,1.12109 -0.71875,2.00586 0,0 4.61914,0 4.61914,0 z m 2.34375,4.16308 c -0.2627,0.48926 -0.50586,0.86328 -0.72656,1.125 -0.34668,0.40625 -0.73047,0.74024 -1.15235,1.00196 -0.42285,0.26074 -0.85937,0.4541 -1.30859,0.57714 -0.45117,0.12305 -0.9209,0.18653 -1.41211,0.18653 -0.95606,0 -1.86426,-0.24414 -2.72656,-0.73242 -0.86133,-0.48731 -1.52051,-1.19629 -1.97754,-2.12696 -0.45703,-0.93066 -0.68555,-1.96972 -0.68555,-3.11816 0,-1.74317 0.49219,-3.13184 1.47754,-4.16699 0.9834,-1.03418 2.24219,-1.55176 3.77637,-1.55176 1.49902,0 2.70019,0.47265 3.60546,1.41699 0.9043,0.94336 1.35743,2.2627 1.35743,3.95606 0,0.22168 -0.0108,0.54687 -0.0303,0.97558 0,0 -7.16015,0 -7.16015,0 0.0352,1.02246 0.27246,1.78223 0.71484,2.2793 0.44141,0.49805 0.99805,0.74707 1.66699,0.74707 0.51172,0 0.94629,-0.13281 1.30567,-0.39746 0.3584,-0.26563 0.66894,-0.65625 0.93164,-1.17285 0,0 2.34375,1.00097 2.34375,1.00097 z" /><path
         id="path48"
         style="fill:#ed114c;fill-opacity:1;fill-rule:nonzero;stroke:none"
         d="m 372.1377,-217.64258 c 0.59375,-0.56933 1.20605,-1.0039 1.83398,-1.30371 0.62891,-0.29883 1.32324,-0.44824 2.08203,-0.44824 0.85742,0 1.47168,0.20801 1.84473,0.62305 0.49804,0.55371 0.74609,1.31152 0.74609,2.27441 0,0 0,8.61621 0,8.61621 0,0 -2.84375,0 -2.84375,0 0,0 0,-7.88379 0,-7.88379 0,-0.46289 -0.0898,-0.79297 -0.26855,-0.99023 -0.17969,-0.19727 -0.43555,-0.2959 -0.7666,-0.2959 -0.35157,0 -0.72364,0.0986 -1.11719,0.2959 -0.39356,0.19726 -0.89649,0.5791 -1.51074,1.14648 0,0 0,7.72754 0,7.72754 0,0 -2.86719,0 -2.86719,0 0,0 0,-11.30859 0,-11.30859 0,0 2.86719,0 2.86719,0 0,0 0,1.54687 0,1.54687 z" /><path
         id="path50"
         style="fill:#ed114c;fill-opacity:1;fill-rule:nonzero;stroke:none"
         d="m 382.1543,-219.18945 c 0,0 2.84472,0 2.84472,0 0,0 0,11.30859 0,11.30859 0,0 -2.84472,0 -2.84472,0 0,0 0,-11.30859 0,-11.30859 z m 0,-4.82422 c 0,0 2.84472,0 2.84472,0 0,0 0,2.86719 0,2.86719 0,0 -2.84472,0 -2.84472,0 0,0 0,-2.86719 0,-2.86719 z" /><path
         id="path52"
         style="fill:#ed114c;fill-opacity:1;fill-rule:nonzero;stroke:none"
         d="m 392.92969,-217.59668 c -0.62403,0 -1.14746,0.20703 -1.56836,0.62012 -0.41895,0.41406 -0.62793,0.91211 -0.62793,1.49609 0,0.57715 0.20898,1.07324 0.62793,1.49024 0.4209,0.41699 0.93066,0.62597 1.52734,0.62597 0.60449,0 1.11621,-0.20898 1.53613,-0.62597 0.4209,-0.417 0.63086,-0.91309 0.63086,-1.49024 0,-0.57715 -0.20996,-1.07422 -0.63086,-1.49023 -0.41992,-0.417 -0.91894,-0.62598 -1.49511,-0.62598 z m -1.80664,9.5791 c -0.34766,0.1582 -0.60938,0.34766 -0.78516,0.56738 -0.17676,0.21973 -0.26465,0.4668 -0.26465,0.74317 0,0.37109 0.18164,0.67676 0.54981,0.91699 0.5332,0.35059 1.44824,0.52637 2.74316,0.52637 1.21387,0 2.06836,-0.16504 2.56836,-0.49512 0.33887,-0.21973 0.50977,-0.50195 0.50977,-0.84473 0,-0.32324 -0.14258,-0.58496 -0.42676,-0.78418 -0.28418,-0.19238 -0.95313,-0.31054 -2.00684,-0.35546 -1.05176,-0.0449 -2.01465,-0.13575 -2.88769,-0.27442 z m 4.97168,-10.63965 c 0.51855,-0.38672 1.01465,-0.66015 1.49023,-0.81836 0.47461,-0.15722 0.85254,-0.2373 1.1377,-0.2373 0,0 0.26953,0 0.26953,0 0,0 0,1.88867 0,1.88867 0,0 -0.53906,0 -0.53906,0 -0.44922,0 -0.87403,0.10742 -1.2754,0.32227 0.36036,0.58203 0.54102,1.2539 0.54102,2.0166 0,1.13672 -0.4082,2.07422 -1.22363,2.8125 -0.81348,0.7373 -1.97364,1.10644 -3.47657,1.10644 -0.47265,0 -0.99121,-0.0381 -1.56054,-0.11425 -0.25,0.13183 -0.43653,0.27441 -0.56153,0.43066 -0.125,0.15527 -0.18652,0.32031 -0.18652,0.49219 0,0.23633 0.10254,0.42968 0.31055,0.58203 0.20117,0.15918 0.59082,0.24902 1.17285,0.26855 0,0 2.93848,0.10352 2.93848,0.10352 1.25293,0.042 2.17285,0.32617 2.75976,0.85156 0.58203,0.52539 0.87305,1.20899 0.87305,2.05371 0,1.04395 -0.42481,1.90039 -1.27246,2.56739 -0.84766,0.66699 -2.32129,1.00097 -4.41895,1.00097 -1.27929,0 -2.41894,-0.15234 -3.41504,-0.45605 -0.67187,-0.20801 -1.18359,-0.53125 -1.53613,-0.97071 -0.35254,-0.43945 -0.5293,-0.94629 -0.5293,-1.5205 0,-0.54688 0.16211,-1.01172 0.48633,-1.39551 0.32617,-0.38379 0.85449,-0.67285 1.58887,-0.86621 -0.4707,-0.23535 -0.81836,-0.49805 -1.03809,-0.78907 -0.22168,-0.29003 -0.33203,-0.63574 -0.33203,-1.03808 0,-0.39453 0.12598,-0.75391 0.37891,-1.07813 0.25195,-0.32617 0.63379,-0.58203 1.14648,-0.76855 -0.58789,-0.40039 -1.03125,-0.87305 -1.3291,-1.41602 -0.29785,-0.54297 -0.44629,-1.15722 -0.44629,-1.84277 0,-1.09961 0.36719,-2.02832 1.10547,-2.78613 0.73731,-0.75782 1.98047,-1.13672 3.73242,-1.13672 0.67188,0 1.27442,0.0615 1.80664,0.18262 0.53321,0.12109 1.00098,0.30566 1.40235,0.55468 z" /><path
         id="path54"
         style="fill:#ed114c;fill-opacity:1;fill-rule:nonzero;stroke:none"
         d="m 401.21289,-219.18945 c 0,0 2.84375,0 2.84375,0 0,0 0,11.30859 0,11.30859 0,0 -2.84375,0 -2.84375,0 0,0 0,-11.30859 0,-11.30859 z m 0,-4.82422 c 0,0 2.84375,0 2.84375,0 0,0 0,2.86719 0,2.86719 0,0 -2.84375,0 -2.84375,0 0,0 0,-2.86719 0,-2.86719 z" /><path
         id="path56"
         style="fill:#ed114c;fill-opacity:1;fill-rule:nonzero;stroke:none"
         d="m 410.70117,-217.64258 c 0.59375,-0.56933 1.20606,-1.0039 1.83399,-1.30371 0.6289,-0.29883 1.32226,-0.44824 2.08203,-0.44824 0.85742,0 1.47168,0.20801 1.84472,0.62305 0.49805,0.55371 0.7461,1.31152 0.7461,2.27441 0,0 0,8.61621 0,8.61621 0,0 -2.84375,0 -2.84375,0 0,0 0,-7.88379 0,-7.88379 0,-0.46289 -0.0899,-0.79297 -0.26856,-0.99023 -0.17968,-0.19727 -0.43554,-0.2959 -0.7666,-0.2959 -0.35156,0 -0.72363,0.0986 -1.11621,0.2959 -0.39453,0.19726 -0.89746,0.5791 -1.51172,1.14648 0,0 0,7.72754 0,7.72754 0,0 -2.86719,0 -2.86719,0 0,0 0,-11.30859 0,-11.30859 0,0 2.86719,0 2.86719,0 0,0 0,1.54687 0,1.54687 z" /><path
         id="path58"
         style="fill:#ed114c;fill-opacity:1;fill-rule:nonzero;stroke:none"
         d="m 424.62207,-217.59668 c -0.62598,0 -1.14746,0.20703 -1.56738,0.62012 -0.4209,0.41406 -0.63184,0.91211 -0.63184,1.49609 0,0.57715 0.21094,1.07324 0.63184,1.49024 0.41992,0.41699 0.92871,0.62597 1.52636,0.62597 0.60352,0 1.11622,-0.20898 1.53516,-0.62597 0.4209,-0.417 0.62988,-0.91309 0.62988,-1.49024 0,-0.57715 -0.20898,-1.07422 -0.62988,-1.49023 -0.41894,-0.417 -0.91699,-0.62598 -1.49414,-0.62598 z m -1.80762,9.5791 c -0.34668,0.1582 -0.6084,0.34766 -0.78515,0.56738 -0.17774,0.21973 -0.26563,0.4668 -0.26563,0.74317 0,0.37109 0.18457,0.67676 0.55176,0.91699 0.5332,0.35059 1.44727,0.52637 2.74316,0.52637 1.21289,0 2.06934,-0.16504 2.56641,-0.49512 0.33984,-0.21973 0.50977,-0.50195 0.50977,-0.84473 0,-0.32324 -0.14258,-0.58496 -0.42579,-0.78418 -0.28418,-0.19238 -0.95214,-0.31054 -2.00585,-0.35546 -1.05274,-0.0449 -2.01661,-0.13575 -2.88868,-0.27442 z m 4.97168,-10.63965 c 0.51856,-0.38672 1.0166,-0.66015 1.49024,-0.81836 0.47363,-0.15722 0.85351,-0.2373 1.13769,-0.2373 0,0 0.26856,0 0.26856,0 0,0 0,1.88867 0,1.88867 0,0 -0.53711,0 -0.53711,0 -0.44922,0 -0.875,0.10742 -1.27539,0.32227 0.35937,0.58203 0.53808,1.2539 0.53808,2.0166 0,1.13672 -0.40625,2.07422 -1.2207,2.8125 -0.81543,0.7373 -1.97461,1.10644 -3.47754,1.10644 -0.47168,0 -0.99219,-0.0381 -1.55957,-0.11425 -0.24902,0.13183 -0.4375,0.27441 -0.5625,0.43066 -0.125,0.15527 -0.1875,0.32031 -0.1875,0.49219 0,0.23633 0.10547,0.42968 0.3125,0.58203 0.19922,0.15918 0.5918,0.24902 1.17188,0.26855 0,0 2.93847,0.10352 2.93847,0.10352 1.25196,0.042 2.17285,0.32617 2.76172,0.85156 0.58008,0.52539 0.87012,1.20899 0.87012,2.05371 0,1.04395 -0.42383,1.90039 -1.27149,2.56739 -0.84765,0.66699 -2.32031,1.00097 -4.41699,1.00097 -1.28125,0 -2.41992,-0.15234 -3.41601,-0.45605 -0.67188,-0.20801 -1.18457,-0.53125 -1.53711,-0.97071 -0.35352,-0.43945 -0.53028,-0.94629 -0.53028,-1.5205 0,-0.54688 0.16309,-1.01172 0.48828,-1.39551 0.3252,-0.38379 0.8545,-0.67285 1.5879,-0.86621 -0.47071,-0.23535 -0.81641,-0.49805 -1.03809,-0.78907 -0.22168,-0.29003 -0.33301,-0.63574 -0.33301,-1.03808 0,-0.39453 0.12695,-0.75391 0.37988,-1.07813 0.25196,-0.32617 0.63477,-0.58203 1.14649,-0.76855 -0.58789,-0.40039 -1.03125,-0.87305 -1.32813,-1.41602 -0.29882,-0.54297 -0.44824,-1.15722 -0.44824,-1.84277 0,-1.09961 0.37012,-2.02832 1.10645,-2.78613 0.73632,-0.75782 1.98242,-1.13672 3.7334,-1.13672 0.67089,0 1.27246,0.0615 1.80761,0.18262 0.53125,0.12109 0.99903,0.30566 1.40039,0.55468 z" /><path
         id="path60"
         style="fill:#ed114c;fill-opacity:1;fill-rule:nonzero;stroke:none"
         d="m 439.69043,-230.9873 c 0,0 4.55078,0 4.55078,0 0,0 0,14.1455 0,14.1455 0,1.76758 0.40723,3.09082 1.22266,3.96875 0.8164,0.87891 1.92578,1.31739 3.32812,1.31739 0.89551,0 1.69239,-0.17579 2.38965,-0.5293 0.69336,-0.35352 1.25098,-0.92871 1.66895,-1.72656 0.41796,-0.79786 0.6289,-1.80762 0.6289,-3.03028 0,0 0,-14.1455 0,-14.1455 0,0 4.59571,0 4.59571,0 0,0 0,14.80664 0,14.80664 0,2.82714 -0.77149,5.00195 -2.31446,6.52539 -1.54199,1.52539 -3.7998,2.28613 -6.77246,2.28613 -1.71387,0 -3.31055,-0.27246 -4.79297,-0.81738 -0.78711,-0.292 -1.4414,-0.67578 -1.96484,-1.15039 -0.72656,-0.66602 -1.33106,-1.51563 -1.81445,-2.55079 -0.4834,-1.03418 -0.72559,-2.4248 -0.72559,-4.17187 0,0 0,-14.92773 0,-14.92773 z" /><path
         id="path62"
         style="fill:#ed114c;fill-opacity:1;fill-rule:nonzero;stroke:none"
         d="m 461.69043,-230.9873 c 0,0 17.56641,0 17.56641,0 0,0 0,4.00488 0,4.00488 0,0 -6.50782,0 -6.50782,0 0,0 0,19.1582 0,19.1582 0,0 -4.55078,0 -4.55078,0 0,0 0,-19.1582 0,-19.1582 0,0 -6.50781,0 -6.50781,0 0,0 0,-4.00488 0,-4.00488 z" /><path
         id="path64"
         style="fill:#ed114c;fill-opacity:1;fill-rule:nonzero;stroke:none"
         d="m 487.68945,-226.9375 c 0,0 0,6.23535 0,6.23535 0,0 3.66211,0 3.66211,0 1.33692,0 2.47559,-0.3789 3.41992,-1.13476 0.61719,-0.50489 0.92774,-1.20606 0.92774,-2.10352 0,-0.85742 -0.3457,-1.57129 -1.03516,-2.1416 -0.68847,-0.57031 -1.79199,-0.85547 -3.3125,-0.85547 0,0 -3.66211,0 -3.66211,0 z m -4.55078,-4.0498 c 0,0 6.24903,0 6.24903,0 3.35742,0 5.67968,0.25292 6.96582,0.75683 1.28515,0.50391 2.28613,1.33594 3.00293,2.49512 0.71679,1.15918 1.07519,2.49023 1.07519,3.99219 0,1.38183 -0.32226,2.52343 -0.96582,3.42578 -0.64258,0.90332 -1.75879,1.67675 -3.3457,2.32226 0,0 4.17187,10.1709 4.17187,10.1709 0,0 -4.51953,0 -4.51953,0 0,0 -3.875,-9.3291 -3.875,-9.3291 0,0 -4.20801,0 -4.20801,0 0,0 0,9.3291 0,9.3291 0,0 -4.55078,0 -4.55078,0 0,0 0,-23.16308 0,-23.16308 z" /><path
         id="path66"
         style="fill:#ed114c;fill-opacity:1;fill-rule:nonzero;stroke:none"
         d="m 504.68652,-230.9873 c 0,0 15.51856,0 15.51856,0 0,0 0,4.00488 0,4.00488 0,0 -10.96778,0 -10.96778,0 0,0 0,5.14258 0,5.14258 0,0 6.68946,0 6.68946,0 0,0 0,3.41308 0,3.41308 0,0 -6.68946,0 -6.68946,0 0,0 0,6.59863 0,6.59863 0,0 10.96778,0 10.96778,0 0,0 0,4.00391 0,4.00391 0,0 -15.51856,0 -15.51856,0 0,0 0,-23.16308 0,-23.16308 z" /><path
         id="path68"
         style="fill:#ed114c;fill-opacity:1;fill-rule:nonzero;stroke:none"
         d="m 541.83496,-214.45508 c -0.32226,1.30274 -0.73047,2.33692 -1.22558,3.10449 -0.79786,1.24121 -1.83008,2.21582 -3.09766,2.92188 -1.2666,0.70605 -2.7334,1.05957 -4.39942,1.05957 -1.77832,0 -3.47363,-0.44727 -5.08886,-1.33887 -1.61524,-0.89355 -2.84082,-2.22851 -3.68067,-4.00488 -0.83691,-1.77637 -1.25683,-3.87109 -1.25683,-6.28418 0,-2.5127 0.42676,-4.7334 1.28027,-6.66113 0.85059,-1.92774 2.08984,-3.37403 3.71387,-4.33789 1.62402,-0.96387 3.33398,-1.44629 5.12988,-1.44629 1.32129,0 2.61524,0.29199 3.88086,0.875 1.26563,0.583 2.3125,1.40722 3.14063,2.47168 0.57421,0.74511 1.0332,1.73047 1.37597,2.95605 0,0 -4.23242,1.20606 -4.23242,1.20606 -0.30078,-1.24317 -0.83984,-2.18457 -1.6123,-2.82129 -0.77247,-0.6377 -1.69825,-0.95606 -2.77832,-0.95606 -1.61622,0 -2.87305,0.78418 -3.77149,2.34961 -0.89941,1.56543 -1.34863,3.61133 -1.34863,6.13672 0,1.59766 0.20801,2.99707 0.62304,4.19922 0.41407,1.20215 0.98438,2.08887 1.71192,2.65918 0.72851,0.57129 1.5166,0.85644 2.36621,0.85644 1.27344,0 2.40918,-0.45996 3.40918,-1.38086 0.70703,-0.63671 1.26465,-1.55664 1.67383,-2.76074 0,0 4.18652,1.19629 4.18652,1.19629 z" /><path
         id="path70"
         style="fill:#ed114c;fill-opacity:1;fill-rule:nonzero;stroke:none"
         d="m 545.68359,-230.9873 c 0,0 4.55079,0 4.55079,0 0,0 0,9.14746 0,9.14746 0,0 8.6914,0 8.6914,0 0,0 0,-9.14746 0,-9.14746 0,0 4.55078,0 4.55078,0 0,0 0,23.16308 0,23.16308 0,0 -4.55078,0 -4.55078,0 0,0 0,-10.01172 0,-10.01172 0,0 -8.6914,0 -8.6914,0 0,0 0,10.01172 0,10.01172 0,0 -4.55079,0 -4.55079,0 0,0 0,-23.16308 0,-23.16308 z" /><path
         id="path72"
         style="fill:#ed114c;fill-opacity:1;fill-rule:nonzero;stroke:none"
         d="m 567.24512,-230.9873 c 0,0 17.5664,0 17.5664,0 0,0 0,4.00488 0,4.00488 0,0 -6.50781,0 -6.50781,0 0,0 0,19.1582 0,19.1582 0,0 -4.55078,0 -4.55078,0 0,0 0,-19.1582 0,-19.1582 0,0 -6.50781,0 -6.50781,0 0,0 0,-4.00488 0,-4.00488 z" /><path
         id="path74"
         style="fill:#ffffff;fill-opacity:1;fill-rule:nonzero;stroke:none"
         d="m 429.48145,-273.5 c 0.8916,-2.6582 1.15136,-5.42871 0.82519,-8.11328 -0.009,7.375 -9.03613,7.88476 -18.41699,2.22363 0,0 0,0 0,0 -2.74219,1.51367 -5.03223,3.25293 -6.75586,5.05274 6.74609,7.62695 20.76758,10.81152 24.34766,0.83691 z" /><path
         id="path76"
         style="fill:#ffffff;fill-opacity:1;fill-rule:nonzero;stroke:none"
         d="m 402.46387,-270.68457 c -1.66992,3.2998 -1.19336,6.42578 2.14453,8.35644 6.16992,2.64161 13.16308,1.68067 18.35449,-2.1748 -6.38965,4.11523 -19.54297,0.15625 -20.49902,-6.18164 z" /><path
         id="path78"
         style="fill:#fcd006;fill-opacity:1;fill-rule:nonzero;stroke:none"
         d="m 422.96289,-264.50293 c 1.97168,-1.46582 3.68359,-3.34863 4.99121,-5.61133 0.63281,-1.09668 1.13867,-2.23047 1.52735,-3.38574 -3.58008,9.97461 -17.60157,6.79004 -24.34766,-0.83691 -1.15723,1.20703 -2.05664,2.44043 -2.66992,3.65234 0.95605,6.33789 14.10937,10.29687 20.49902,6.18164 z" /><path
         id="path80"
         style="fill:#ed114c;fill-opacity:1;fill-rule:nonzero;stroke:none"
         d="m 408.19434,-297.56934 c -2.74903,0.55567 -5.27735,1.7168 -7.43946,3.3418 6.3916,-3.68066 11.34571,3.88184 11.13477,14.83691 0,0 0,9.8e-4 0,9.8e-4 2.68066,1.61817 5.33203,2.73047 7.75293,3.32324 3.23242,-9.65429 -1.02051,-23.3916 -11.44824,-21.50293 z" /><path
         id="path82"
         style="fill:#ed114c;fill-opacity:1;fill-rule:nonzero;stroke:none"
         d="m 424.14063,-275.58008 c 3.69335,-0.20312 6.16308,-2.18066 6.16601,-6.03515 -0.79785,-6.66309 -5.12695,-12.24122 -11.06152,-14.80762 6.75879,3.47558 9.90527,16.84668 4.89551,20.84277 z" /><path
         id="path84"
         style="fill:#fcd006;fill-opacity:1;fill-rule:nonzero;stroke:none"
         d="m 419.24512,-296.42285 c -2.25586,-0.97559 -4.74219,-1.5166 -7.35547,-1.5166 -1.26563,0 -2.50098,0.1289 -3.69531,0.37011 10.42773,-1.88867 14.68066,11.84864 11.44824,21.50293 1.62402,0.39942 3.1416,0.56153 4.49805,0.48633 5.00976,-3.99609 1.86328,-17.36719 -4.89551,-20.84277 z" /><path
         id="path86"
         style="fill:#ed114c;fill-opacity:1;fill-rule:nonzero;stroke:none"
         d="m 397.99316,-267.09961 c 1.85547,2.10156 4.125,3.71094 6.61329,4.77051 -6.38282,-3.69336 -2.31153,-11.7666 7.2832,-17.06055 0,0 0,-9.8e-4 0,-9.8e-4 0.0605,-3.12988 -0.30176,-5.98242 -0.99805,-8.37597 -9.97851,2.0293 -19.74707,12.58008 -12.89844,20.66699 z" /><path
         id="path88"
         style="fill:#ed114c;fill-opacity:1;fill-rule:nonzero;stroke:none"
         d="m 409.06348,-291.9043 c -2.02344,-3.09668 -4.96875,-4.24609 -8.31055,-2.32226 -5.37207,4.02246 -8.03711,10.56054 -7.29199,16.9834 -0.37012,-7.59082 9.63574,-17.00196 15.60254,-14.66114 z" /><path
         id="path90"
         style="fill:#fcd006;fill-opacity:1;fill-rule:nonzero;stroke:none"
         d="m 393.46094,-277.24316 c 0.2832,2.4414 1.05664,4.86523 2.36328,7.1289 0.63281,1.09571 1.3623,2.10059 2.16894,3.01465 -6.84863,-8.08691 2.91993,-18.63769 12.89844,-20.66699 -0.4668,-1.60547 -1.08691,-3.00098 -1.82812,-4.1377 -5.9668,-2.34082 -15.97266,7.07032 -15.60254,14.66114 z" /></g></g></svg>